<?xml version="1.0" encoding="UTF-8" standalone="no"?>
<!-- Created with Inkscape (http://www.inkscape.org/) -->

<svg
   width="210mm"
   height="297mm"
   viewBox="0 0 210 297"
   version="1.1"
   id="svg5"
   inkscape:version="1.1.1 (3bf5ae0d25, 2021-09-20)"
   sodipodi:docname="browar_logo.svg"
   xmlns:inkscape="http://www.inkscape.org/namespaces/inkscape"
   xmlns:sodipodi="http://sodipodi.sourceforge.net/DTD/sodipodi-0.dtd"
   xmlns="http://www.w3.org/2000/svg"
   xmlns:svg="http://www.w3.org/2000/svg">
  <sodipodi:namedview
     id="namedview7"
     pagecolor="#505050"
     bordercolor="#eeeeee"
     borderopacity="1"
     inkscape:pageshadow="0"
     inkscape:pageopacity="0"
     inkscape:pagecheckerboard="0"
     inkscape:document-units="mm"
     showgrid="false"
     inkscape:zoom="0.64052329"
     inkscape:cx="397.33138"
     inkscape:cy="561.25984"
     inkscape:window-width="2560"
     inkscape:window-height="1377"
     inkscape:window-x="1912"
     inkscape:window-y="-8"
     inkscape:window-maximized="1"
     inkscape:current-layer="layer1" />
  <defs
     id="defs2">
    <rect
       x="131.14277"
       y="340.34672"
       width="574.53024"
       height="263.84677"
       id="rect8621" />
    <rect
       x="131.14277"
       y="374.69364"
       width="541.74455"
       height="174.85703"
       id="rect5781" />
  </defs>
  <g
     inkscape:label="Warstwa 1"
     inkscape:groupmode="layer"
     id="layer1">
    <g
       id="g3949"
       transform="translate(-21.066759,-31.393602)">
      <path
         d="m 173.23788,92.03708 h -9.7473 v -9.747301 a 4.8736193,4.8736193 0 0 0 -4.87356,-4.873558 H 90.386292 a 4.8736193,4.8736193 0 0 0 -4.873556,4.873558 v 73.104291 c 0,8.06095 6.559906,14.62085 14.620854,14.62085 h 48.73613 c 8.06095,0 14.62086,-6.5599 14.62086,-14.62085 v -4.87356 h 9.7473 c 5.37569,0 9.7473,-4.3718 9.7473,-9.7473 V 101.7842 c 0,-5.375507 -4.37161,-9.74712 -9.7473,-9.74712 z m -58.48343,53.60969 h -9.7473 V 96.910638 h 9.7473 z m 29.24171,0 h -9.7473 V 96.910638 h 9.7473 z m 29.24172,-4.87356 h -9.7473 V 101.7842 h 9.7473 z"
         id="path824"
         style="fill:#ffd100;fill-opacity:1;stroke-width:4.87361" />
      <ellipse
         style="fill:none;fill-opacity:1;stroke:#634133;stroke-width:7.7295;stroke-linecap:square;stroke-miterlimit:4;stroke-dasharray:none;stroke-opacity:1"
         id="path3303"
         cx="126.81363"
         cy="121.44367"
         rx="66.98391"
         ry="64.712006" />
    </g>
    <text
       xml:space="preserve"
       transform="matrix(0.26458333,0,0,0.26458333,21.479836,6.8157115)"
       id="text5779"
       style="font-style:normal;font-weight:normal;font-size:40px;line-height:1.25;font-family:sans-serif;white-space:pre;shape-inside:url(#rect5781);fill:#000000;fill-opacity:1;stroke:none" />
    <text
       xml:space="preserve"
       transform="matrix(0.81699765,0,0,0.81699765,-54.460212,-176.99436)"
       id="text8619"
       style="font-style:normal;font-variant:normal;font-weight:normal;font-stretch:normal;font-size:40px;line-height:1.25;font-family:Emmett;-inkscape-font-specification:'Emmett, Normal';font-variant-ligatures:normal;font-variant-caps:normal;font-variant-numeric:normal;font-variant-east-asian:normal;white-space:pre;shape-inside:url(#rect8621);fill:#000000;fill-opacity:1;stroke:#f2f3ae;stroke-width:2.224;stroke-miterlimit:4;stroke-dasharray:none;stroke-opacity:1"><tspan
         x="131.14258"
         y="378.25771"
         id="tspan4056"><tspan
           style="fill:#392a16"
           id="tspan4054">MAJER</tspan></tspan></text>
  </g>
</svg>
